<svg xmlns="http://www.w3.org/2000/svg" viewBox="0 0 254.98 60.38"><defs><style>.cls-1{fill:#003a85;}.cls-2{fill:#e50816;}.cls-3{fill:#34b3e8;}.cls-4{fill:#006bb5;}</style></defs><title>Asset 2</title><g id="Layer_2" data-name="Layer 2"><g id="Work"><path class="cls-1" d="M134.86,18.75h-5.39V41.63h3.29a2.1,2.1,0,0,0,2.1-2.1Z"/><rect class="cls-2" x="129.47" y="18.75" width="5.39" height="5.39"/><path class="cls-1" d="M90.32,20.71a8.06,8.06,0,0,0-5.84-2h-9.4V41.63h3.29a2.1,2.1,0,0,0,2.1-2.1V33.79h4a8.06,8.06,0,0,0,5.84-2,7.47,7.47,0,0,0,2-5.56,7.45,7.45,0,0,0-2-5.56m-7.43,8.88H80.47V22.95h2.41c3.11,0,3.76,1.81,3.76,3.32S86,29.59,82.89,29.59Z"/><path class="cls-1" d="M108.56,37.18h-7.3V32.35h6.89V27.9h-6.89V23.2h7.3V18.75H95.86V41.63h10.6a2.1,2.1,0,0,0,2.1-2.1Z"/><path class="cls-1" d="M126,37.18h-7.37V18.75h-5.39V41.63h10.66a2.1,2.1,0,0,0,2.1-2.1Z"/><path class="cls-1" d="M145.49,26.47l11.9,15.16h5.55V18.75h-5.36V33.91l-.21-.27L145.68,18.75h-5.58V41.63h3.29a2.1,2.1,0,0,0,2.1-2.1Z"/><path class="cls-1" d="M187.28,34.51a11.22,11.22,0,0,0,0-8.67,11.72,11.72,0,0,0-2.41-3.64,12.1,12.1,0,0,0-3.59-2.51,10.4,10.4,0,0,0-4.37-.94h-8.71V41.63h8.71a10.45,10.45,0,0,0,4.4-.94,11.86,11.86,0,0,0,3.59-2.52,11.58,11.58,0,0,0,2.4-3.66M182,33a6.31,6.31,0,0,1-1.4,2.22,6.46,6.46,0,0,1-2.24,1.46,8.05,8.05,0,0,1-3,.53h-1.78v-14h1.78a7.9,7.9,0,0,1,3,.53,6.52,6.52,0,0,1,2.24,1.46A6.45,6.45,0,0,1,182,27.42a7.65,7.65,0,0,1,.5,2.77A7.93,7.93,0,0,1,182,33Z"/><path class="cls-1" d="M215.76,34.95a12.5,12.5,0,0,0,0-9.52,11.86,11.86,0,0,0-2.63-3.84,12.2,12.2,0,0,0-4-2.57,14.65,14.65,0,0,0-10.27,0,12,12,0,0,0,0,22.34,14.66,14.66,0,0,0,10.27,0,12.17,12.17,0,0,0,4-2.57,11.78,11.78,0,0,0,2.63-3.84m-5.3-2a6.86,6.86,0,0,1-1.54,2.19,7.09,7.09,0,0,1-2.25,1.44,7.36,7.36,0,0,1-5.39,0,6.85,6.85,0,0,1-3.76-3.63,7,7,0,0,1,0-5.51,6.87,6.87,0,0,1,3.76-3.63,7.39,7.39,0,0,1,5.39,0,7.13,7.13,0,0,1,2.25,1.44,6.86,6.86,0,0,1,1.54,2.19,7,7,0,0,1,0,5.51Z"/><rect class="cls-1" x="227.5" y="18.78" width="5.76" height="22.67"/><rect class="cls-1" x="238.36" y="18.78" width="5.76" height="22.67"/><rect class="cls-1" x="249.22" y="18.78" width="5.76" height="22.67"/><path class="cls-3" d="M48,15.59s-.47-.51-.84-.92S35.1,2.3,35.09,2.28L33.79.94a3.05,3.05,0,0,0-4.43,0L25.05,5.35h7.47a1,1,0,0,1,.87.49l.51.83a.66.66,0,0,1-.56,1H16.92l2.93,3.06A4.72,4.72,0,0,0,23,11.9H35.54a1.44,1.44,0,0,1,1.09.55A3.71,3.71,0,0,1,37,13a.63.63,0,0,1-.56,1H10.82l1.86,2a4.28,4.28,0,0,0,2.8,1H47.39A.87.87,0,0,0,48,15.59"/><path class="cls-3" d="M16.06,43.34a.87.87,0,0,0-.65,1.44s.47.5.84.92a2,2,0,0,0,1.47.66H45a4.27,4.27,0,0,0,2.8-1l1.86-2Z"/><path class="cls-4" d="M11,31.3c-3.82,0-5,3.28-3.24,5.54a28.22,28.22,0,0,0,2.47,2.64,12.28,12.28,0,0,0,1,1,3,3,0,0,0,2,.81H49.82a4.27,4.27,0,0,0,2.8-1.05l2.23-2.27H19.07a.53.53,0,0,1-.42-.86l.54-.71a1.37,1.37,0,0,1,1.08-.54H55.13A4.3,4.3,0,0,0,58,34.77l3.42-3.47Z"/><path class="cls-3" d="M21.61,48.47a1.07,1.07,0,0,0-.8,1.78l8.85,9.19a3.06,3.06,0,0,0,4.43,0L38.4,55H30.93a1,1,0,0,1-.87-.49l-.51-.83a.65.65,0,0,1,.56-1h8.58a4.74,4.74,0,0,0,3.12-1.17l2.93-3.06Z"/><path class="cls-4" d="M55.81,23.54a28,28,0,0,0-2.47-2.64,12,12,0,0,0-1-1,3,3,0,0,0-2-.81H5.7l2.23,2.27a4.27,4.27,0,0,0,2.8,1h33.8a.53.53,0,0,1,.42.86l-.54.71a1.37,1.37,0,0,1-1.08.53H0L3.42,28a4.3,4.3,0,0,0,2.82,1.06H52.57c3.82,0,5-3.28,3.24-5.54"/></g></g></svg>