<svg xmlns="http://www.w3.org/2000/svg" viewBox="0 0 65.59 65.59"><defs><style>.cls-1{fill:#1b438b;}.cls-2{fill:#fff;}</style></defs><title>Asset 9</title><g id="Layer_2" data-name="Layer 2"><g id="Work"><circle class="cls-1" cx="32.8" cy="32.8" r="32.8"/><path class="cls-2" d="M21.77,45.47a6.08,6.08,0,0,1-4.82-2,7.14,7.14,0,0,1-1.74-4.87v-1A14.83,14.83,0,0,1,16,33a23.73,23.73,0,0,1,2.19-4.77,29.72,29.72,0,0,1,3.28-4.47,21.84,21.84,0,0,1,4.08-3.63h5.37a39.13,39.13,0,0,0-5.77,6,16.5,16.5,0,0,0-3.08,6h.2A5.53,5.53,0,0,1,26.74,34a6.59,6.59,0,0,1,1.59,4.37V39a6.4,6.4,0,0,1-1.79,4.57A6.26,6.26,0,0,1,21.77,45.47Zm19.68,0a6.08,6.08,0,0,1-4.82-2,7.12,7.12,0,0,1-1.74-4.87v-1a14.83,14.83,0,0,1,.8-4.62,23.5,23.5,0,0,1,2.19-4.77,29.78,29.78,0,0,1,3.28-4.47,21.9,21.9,0,0,1,4.07-3.63h5.37a39.11,39.11,0,0,0-5.76,6,16.48,16.48,0,0,0-3.08,6h.2A5.53,5.53,0,0,1,46.42,34,6.6,6.6,0,0,1,48,38.41V39a6.39,6.39,0,0,1-1.79,4.57A6.25,6.25,0,0,1,41.45,45.47Z"/></g></g></svg>